<?xml version="1.0" encoding="utf-8"?>
<!-- Generator: Adobe Illustrator 16.0.0, SVG Export Plug-In . SVG Version: 6.00 Build 0)  -->
<!DOCTYPE svg PUBLIC "-//W3C//DTD SVG 1.1//EN" "http://www.w3.org/Graphics/SVG/1.1/DTD/svg11.dtd">
<svg version="1.1" id="Layer_1" xmlns="http://www.w3.org/2000/svg" xmlns:xlink="http://www.w3.org/1999/xlink" x="0px" y="0px"
	 width="792px" height="1080px" viewBox="0 0 792 1080" enable-background="new 0 0 792 1080" xml:space="preserve">
<g>
	<g>
		<path fill="#BFC1E1" d="M622.959,476.103l-0.041,85.808c0,7.783-4.424,12.866-11.835,13.596l-1.851,0.182l-1.85-0.182
			c-7.414-0.729-11.84-5.813-11.84-13.602l-0.041-85.802H562.83v11.836l-0.457-0.734c-3.986-6.408-16.214-17.251-36.752-17.251
			c-10.166,0-20.676,4.714-28.113,12.608c-3.713,3.941-6.533,8.602-8.236,13.588c-8.509-13.295-23.289-21.466-39.102-21.466h-17.104
			v-0.087h-33.364v45.042l-13.831-0.046l-19.727,19.728v-20.377h-30.326v4.176c-5.936-2.736-12.457-4.176-18.959-4.176
			c-26.948,0-40.948,17.26-44.157,34.598l-21.877-39.46l-26.136,49.84v-89.771h-33.422v49.78h-21.143v-49.78h-31.746v135.09h31.746
			v-54.11h21.143v54.11h7.035l-0.211,0.403l10.037-0.403h16.561v-0.664l8.277-0.332l8.241-15.321H261.4l8.533,15.827l35.261,0.252
			l-0.674-1.252c4.017,1.144,8.155,1.722,12.339,1.722c6.64,0,13.01-1.396,18.959-4.149v3.918h30.326v-20.376l19.74,19.738
			l13.817-0.089v1.174h33.364v-42.202h17.104c21.957,0,40.666-15.186,45.309-36.425c7.848,9.61,19.204,13.888,24.826,16.005
			c0.858,0.322,1.67,0.627,2.07,0.806c16.158,7.173,15.861,12.649,15.664,16.272c-0.49,9.041-12.795,9.348-13.309,9.355
			l-0.211,0.002c-9.09,0-15.575-10.326-15.836-10.747l-5.993-10.239l-28.827,19.941l7.363,9.209
			c12.564,15.713,28.726,24.366,45.511,24.366c17.263-0.002,33.331-9.613,40.694-24.127c6.611,13.663,19.682,23.475,34.646,25.828
			l7.177,0.727l7.228-0.74c22.319-3.537,39.15-23.23,39.15-45.808v-85.808H622.959z M520.586,506.238
			c1.566-3.616,3.33-4.323,5.848-4.323c4.222,0,8.764,2.459,10.133,3.592l6.234,10.299l20.029-16.627v39.2
			c-8.097-10.533-20.297-16.316-29.037-19.821c-10.938-4.385-13.138-8.604-13.467-9.405
			C520.09,508.578,519.896,507.831,520.586,506.238z M433.066,534.798V507.37l17.104,0.025c8.572,0,13.689,5.117,13.689,13.688
			c0,8.572-5.123,13.689-13.705,13.689L433.066,534.798z M399.702,549.525v29.133l-14.567-14.565L399.702,549.525z M316.859,549.738
			c12.615,0,18.959,9.253,18.959,9.253v3.375v8.938c0,0-6.156,7.37-18.959,7.37c-7.979,0-14.469-6.49-14.469-14.467
			C302.391,556.229,308.881,549.738,316.859,549.738z"/>
	</g>
	<g>
		<path fill="none" d="M335.152,558.33l-5.396-5.902c-3.354-3.669-7.934-5.689-12.896-5.689c-9.633,0-17.469,7.836-17.469,17.469
			c0,9.631,7.836,17.467,17.469,17.467c4.666,0,9.053-1.816,12.352-5.115l5.656-5.656l3.951,3.951V554.98L335.152,558.33z"/>
		<polygon fill="none" points="380.893,564.093 402.702,585.9 402.702,542.283 		"/>
		<path fill="none" d="M450.17,504.396l-20.104-0.029v33.437l20.092-0.029c10.15,0,16.701-6.551,16.701-16.689
			C466.859,510.946,460.309,504.396,450.17,504.396z"/>
		<path fill="#FFFFFF" d="M625.958,479.103l-0.04,82.808c0,9.345-5.572,15.698-14.541,16.581l-2.141,0.21l-2.146-0.21
			c-8.973-0.88-14.547-7.234-14.547-16.585l-0.039-82.804H565.83v70.538c-5.85-15.338-20.236-23.119-33.152-28.298
			c-8.053-3.229-13.565-7.256-15.127-11.049c-0.451-1.098-0.828-2.688,0.281-5.248c1.861-4.297,4.435-6.131,8.602-6.131
			c5.414,0,11.059,3.188,12.469,4.658l4.662,7.701l19.948-16.561l-3.687-5.926c-0.402-0.646-10.131-15.835-34.205-15.835
			c-9.355,0-19.049,4.36-25.93,11.666c-5.409,5.742-8.596,12.841-9.23,20.366c-6.408-15.98-22.047-27.302-40.291-27.302h-20.104
			v-0.087h-27.364v45.052l-15.592-0.051l-23.966,23.965v-24.619h-24.326v6.18c-6.563-3.988-14.156-6.18-21.959-6.18
			c-26.615,0-41.947,19.75-41.947,42.17l-11.511-21.368l-12.493-22.364l-29.219,55.721v-98.952h-27.422v49.78h-27.143v-49.78
			h-25.746v129.09h25.746v-54.11h27.143v54.11h8.996l-0.104,0.197l4.928-0.197h13.602v-0.547l9.446-0.379l8.28-15.392h23.775
			l8.539,15.841l28.421,0.201l-2.12-3.934c5.674,2.836,12.065,4.44,18.828,4.44c7.869,0,15.407-2.143,21.959-6.142v5.91h24.326
			v-24.618l23.975,23.974l15.583-0.101v1.192h27.364v-42.202h20.104c23.504,0,42.689-18.784,43.367-42.127
			c6.553,13.875,21.405,19.481,27.825,21.899c0.908,0.343,1.766,0.665,2.229,0.871c16.654,7.394,17.736,13.774,17.443,19.177
			c-0.512,9.443-10.864,12.105-16.266,12.193l-0.25,0.002c-10.967,0-18.371-12.144-18.424-12.232l-4.359-7.446l-23.521,16.272
			l5.354,6.696c11.984,14.987,27.312,23.24,43.162,23.24c0.001,0,0.005,0,0.006,0c19.492-0.002,36.37-12.854,40.702-29.522
			c4.669,16.595,19.064,29.423,36.737,31.487l5.077,0.45l5.07-0.454c21.6-2.545,38.309-21.177,38.309-43.081v-82.808H625.958z
			 M316.859,581.674c-9.633,0-17.469-7.836-17.469-17.467c0-9.633,7.836-17.469,17.469-17.469c13.428,0,21.959,11.315,21.959,11.315
			v15.063C338.818,573.116,330.162,581.674,316.859,581.674z M380.893,564.093l21.81-21.81V585.9L380.893,564.093z M450.158,537.773
			l-20.092,0.029v-33.437l20.104,0.029c10.139,0,16.689,6.551,16.689,16.688C466.859,531.223,460.309,537.773,450.158,537.773z"/>
	</g>
	<linearGradient id="SVGID_1_" gradientUnits="userSpaceOnUse" x1="410.7021" y1="542.1416" x2="422.0664" y2="542.1416">
		<stop  offset="0.0918" style="stop-color:#5057A6"/>
		<stop  offset="0.3827" style="stop-color:#5057A6"/>
	</linearGradient>
	<rect x="410.702" y="485.597" fill="url(#SVGID_1_)" width="11.364" height="113.09"/>
	<g>
		<linearGradient id="SVGID_2_" gradientUnits="userSpaceOnUse" x1="149.3789" y1="541.6943" x2="159.125" y2="541.6943">
			<stop  offset="0.0918" style="stop-color:#5057A6"/>
			<stop  offset="0.3827" style="stop-color:#5057A6"/>
		</linearGradient>
		<rect x="149.379" y="485.149" fill="url(#SVGID_2_)" width="9.746" height="113.09"/>
		<linearGradient id="SVGID_3_" gradientUnits="userSpaceOnUse" x1="346.8184" y1="564.0918" x2="355.1445" y2="564.0918">
			<stop  offset="0.0918" style="stop-color:#5057A6"/>
			<stop  offset="0.3827" style="stop-color:#5057A6"/>
		</linearGradient>
		<rect x="346.818" y="529.943" fill="url(#SVGID_3_)" width="8.326" height="68.296"/>
		<linearGradient id="SVGID_4_" gradientUnits="userSpaceOnUse" x1="162.8477" y1="541.6943" x2="213.6895" y2="541.6943">
			<stop  offset="0.0918" style="stop-color:#5057A6"/>
			<stop  offset="0.3827" style="stop-color:#5057A6"/>
		</linearGradient>
		<polygon fill="url(#SVGID_4_)" points="202.268,534.93 162.848,534.93 162.848,544.129 202.268,544.129 202.268,598.239 
			213.689,598.239 213.689,485.149 202.268,485.149 		"/>
		<linearGradient id="SVGID_5_" gradientUnits="userSpaceOnUse" x1="216.6758" y1="565.0352" x2="286.7031" y2="565.0352">
			<stop  offset="0.0918" style="stop-color:#5057A6"/>
			<stop  offset="0.3827" style="stop-color:#5057A6"/>
		</linearGradient>
		<polygon fill="url(#SVGID_5_)" points="251.131,532.183 216.676,597.888 226.254,597.504 251.283,550.974 262.44,571.669 
			244.387,571.669 239.139,581.922 267.967,581.922 276.525,597.797 286.703,597.869 256.358,541.539 		"/>
		<linearGradient id="SVGID_6_" gradientUnits="userSpaceOnUse" x1="282.5947" y1="564.207" x2="342.1543" y2="564.207">
			<stop  offset="0.0918" style="stop-color:#5057A6"/>
			<stop  offset="0.3827" style="stop-color:#5057A6"/>
		</linearGradient>
		<path fill="url(#SVGID_6_)" d="M316.859,538.738c7.446,0,14.145,3.197,18.801,8.291l6.494-5.932
			c-6.265-6.854-15.277-11.154-25.295-11.154c-18.924,0-34.265,15.34-34.265,34.264c0,18.923,15.341,34.264,34.265,34.264
			c9.462,0,18.027-3.836,24.229-10.035l-6.221-6.22c-4.608,4.608-10.977,7.458-18.008,7.458c-14.066,0-25.469-11.402-25.469-25.467
			C291.391,550.141,302.793,538.738,316.859,538.738z"/>
		<linearGradient id="SVGID_7_" gradientUnits="userSpaceOnUse" x1="356.96" y1="564.0898" x2="403.0215" y2="564.0898">
			<stop  offset="0.0918" style="stop-color:#5057A6"/>
			<stop  offset="0.3827" style="stop-color:#5057A6"/>
		</linearGradient>
		<polygon fill="url(#SVGID_7_)" points="403.021,530.65 390.413,530.608 356.96,564.061 356.99,564.091 356.96,564.122 
			390.412,597.572 402.98,597.492 369.579,564.093 		"/>
	</g>
	<linearGradient id="SVGID_8_" gradientUnits="userSpaceOnUse" x1="426.4961" y1="521.084" x2="485.5693" y2="521.084">
		<stop  offset="0.0918" style="stop-color:#5057A6"/>
		<stop  offset="0.3827" style="stop-color:#5057A6"/>
	</linearGradient>
	<path fill="url(#SVGID_8_)" d="M450.17,485.684h-23.674v10.677l23.674,0.035c14.531,0,24.689,10.156,24.689,24.688
		s-10.158,24.689-24.689,24.689l-23.674,0.034v10.677h23.674c19.551,0,35.399-15.85,35.399-35.4S469.721,485.684,450.17,485.684z"/>
	<linearGradient id="SVGID_9_" gradientUnits="userSpaceOnUse" x1="612.1602" y1="542.1406" x2="644.6328" y2="542.1406">
		<stop  offset="0.0918" style="stop-color:#5057A6"/>
		<stop  offset="0.3827" style="stop-color:#5057A6"/>
	</linearGradient>
	<path fill="url(#SVGID_9_)" d="M633.954,487.103l-0.036,74.808c0,13.532-8.809,23.268-21.758,24.543l0.01,10.725
		c18.176-1.496,32.463-16.707,32.463-35.268v-74.808H633.954z"/>
	<linearGradient id="SVGID_10_" gradientUnits="userSpaceOnUse" x1="573.8301" y1="542.1406" x2="606.3184" y2="542.1406">
		<stop  offset="0.0918" style="stop-color:#5057A6"/>
		<stop  offset="0.3827" style="stop-color:#5057A6"/>
	</linearGradient>
	<path fill="url(#SVGID_10_)" d="M584.543,561.91l-0.035-74.808H573.83v74.808c0,18.57,14.303,33.788,32.488,35.27l-0.01-10.727
		C593.357,585.182,584.543,575.445,584.543,561.91z"/>
	<linearGradient id="SVGID_11_" gradientUnits="userSpaceOnUse" x1="489.8174" y1="537.9917" x2="560.5273" y2="537.9917">
		<stop  offset="0.0918" style="stop-color:#5057A6"/>
		<stop  offset="0.3827" style="stop-color:#5057A6"/>
	</linearGradient>
	<path fill="url(#SVGID_11_)" d="M553.033,493.015l-7.435,6.173c-3.116-5.147-26.573-17.022-35.106,2.679
		c-5.064,11.689,4.313,20.93,19.208,26.901c17.278,6.928,30.827,16.434,30.827,36.375c0,26.398-41.052,46.741-70.71,9.651
		l9.374-6.484c0,0,9.628,16.45,25.709,16.188c10.195-0.167,23.369-5.858,24.123-19.759c0.605-11.155-5.277-19.416-22.186-26.922
		c-5.611-2.49-27.222-7.873-28.456-28.504c-1.003-16.771,14.313-28.359,27.239-28.359
		C545.528,480.953,553.033,493.015,553.033,493.015z"/>
</g>
</svg>
