<?xml version="1.0" encoding="utf-8"?>
<!-- Generator: Adobe Illustrator 16.0.0, SVG Export Plug-In . SVG Version: 6.00 Build 0)  -->
<!DOCTYPE svg PUBLIC "-//W3C//DTD SVG 1.1//EN" "http://www.w3.org/Graphics/SVG/1.1/DTD/svg11.dtd">
<svg version="1.1" id="Layer_1" xmlns="http://www.w3.org/2000/svg" xmlns:xlink="http://www.w3.org/1999/xlink" x="0px" y="0px"
	 width="792px" height="1080px" viewBox="0 0 792 1080" enable-background="new 0 0 792 1080" xml:space="preserve">
<g>
	<g>
		<polygon fill="#FFFFFF" points="283.958,735.604 171.364,540.584 283.958,345.56 509.15,345.56 621.746,540.584 509.15,735.604 		
			"/>
		<g>
			<linearGradient id="SVGID_1_" gradientUnits="userSpaceOnUse" x1="366.4224" y1="419.9541" x2="394.6919" y2="419.9541">
				<stop  offset="0.0918" style="stop-color:#5057A6"/>
				<stop  offset="0.3827" style="stop-color:#5057A6"/>
			</linearGradient>
			<polygon fill="url(#SVGID_1_)" points="394.692,439.897 394.692,397.427 366.422,416.629 394.692,442.482 			"/>
			<linearGradient id="SVGID_2_" gradientUnits="userSpaceOnUse" x1="364.7856" y1="437.0176" x2="392.4888" y2="437.0176">
				<stop  offset="0.0918" style="stop-color:#5057A6"/>
				<stop  offset="0.3827" style="stop-color:#5057A6"/>
			</linearGradient>
			<polygon fill="url(#SVGID_2_)" points="364.786,420.342 364.786,453.692 392.489,445.674 			"/>
			<linearGradient id="SVGID_3_" gradientUnits="userSpaceOnUse" x1="398.5391" y1="419.6895" x2="426.2246" y2="419.6895">
				<stop  offset="0.0918" style="stop-color:#5057A6"/>
				<stop  offset="0.3827" style="stop-color:#5057A6"/>
			</linearGradient>
			<polygon fill="url(#SVGID_3_)" points="426.225,416.617 398.539,397.45 398.539,441.929 			"/>
			<linearGradient id="SVGID_4_" gradientUnits="userSpaceOnUse" x1="400.582" y1="466.5488" x2="426.707" y2="466.5488">
				<stop  offset="0.0918" style="stop-color:#5057A6"/>
				<stop  offset="0.3827" style="stop-color:#5057A6"/>
			</linearGradient>
			<polygon fill="url(#SVGID_4_)" points="419.488,482.971 426.707,459.42 400.582,450.126 			"/>
			<linearGradient id="SVGID_5_" gradientUnits="userSpaceOnUse" x1="365.4355" y1="466.3672" x2="392.4648" y2="466.3672">
				<stop  offset="0.0918" style="stop-color:#5057A6"/>
				<stop  offset="0.3827" style="stop-color:#5057A6"/>
			</linearGradient>
			<polygon fill="url(#SVGID_5_)" points="365.436,457.515 374.6,483.047 392.465,449.687 			"/>
			<linearGradient id="SVGID_6_" gradientUnits="userSpaceOnUse" x1="399.9746" y1="438.0371" x2="427.8447" y2="438.0371">
				<stop  offset="0.0918" style="stop-color:#5057A6"/>
				<stop  offset="0.3827" style="stop-color:#5057A6"/>
			</linearGradient>
			<polygon fill="url(#SVGID_6_)" points="427.836,455.731 427.845,455.701 427.845,420.342 399.975,445.829 			"/>
			<linearGradient id="SVGID_7_" gradientUnits="userSpaceOnUse" x1="398.5391" y1="475.1538" x2="417.0078" y2="475.1538">
				<stop  offset="0.0918" style="stop-color:#5057A6"/>
				<stop  offset="0.3827" style="stop-color:#5057A6"/>
			</linearGradient>
			<polygon fill="url(#SVGID_7_)" points="398.539,496.018 417.008,486.378 398.539,454.29 			"/>
			<linearGradient id="SVGID_8_" gradientUnits="userSpaceOnUse" x1="377.166" y1="474.8218" x2="394.6919" y2="474.8218">
				<stop  offset="0.0918" style="stop-color:#5057A6"/>
				<stop  offset="0.3827" style="stop-color:#5057A6"/>
			</linearGradient>
			<polygon fill="url(#SVGID_8_)" points="377.166,486.407 394.692,495.966 394.692,453.677 			"/>
			<linearGradient id="SVGID_9_" gradientUnits="userSpaceOnUse" x1="456.5352" y1="456.0073" x2="490.5625" y2="456.0073">
				<stop  offset="0.0918" style="stop-color:#5057A6"/>
				<stop  offset="0.3827" style="stop-color:#5057A6"/>
			</linearGradient>
			<polygon fill="url(#SVGID_9_)" points="468.83,473.074 490.563,436.728 456.535,438.702 467.508,475.287 			"/>
			<linearGradient id="SVGID_10_" gradientUnits="userSpaceOnUse" x1="436.1699" y1="458.9702" x2="463.9844" y2="458.9702">
				<stop  offset="0.0918" style="stop-color:#5057A6"/>
				<stop  offset="0.3827" style="stop-color:#5057A6"/>
			</linearGradient>
			<polygon fill="url(#SVGID_10_)" points="453.234,441.042 436.17,469.588 463.984,476.898 			"/>
			<linearGradient id="SVGID_11_" gradientUnits="userSpaceOnUse" x1="471.082" y1="457.752" x2="507.7285" y2="457.752">
				<stop  offset="0.0918" style="stop-color:#5057A6"/>
				<stop  offset="0.3827" style="stop-color:#5057A6"/>
			</linearGradient>
			<polygon fill="url(#SVGID_11_)" points="507.729,469.288 493.838,438.717 471.082,476.787 			"/>
			<linearGradient id="SVGID_12_" gradientUnits="userSpaceOnUse" x1="468.0156" y1="503.7412" x2="486.248" y2="503.7412">
				<stop  offset="0.0918" style="stop-color:#5057A6"/>
				<stop  offset="0.3827" style="stop-color:#5057A6"/>
			</linearGradient>
			<polygon fill="url(#SVGID_12_)" points="468.016,522.631 486.248,506.167 468.637,484.851 			"/>
			<linearGradient id="SVGID_13_" gradientUnits="userSpaceOnUse" x1="429.5547" y1="486.459" x2="461.9121" y2="486.459">
				<stop  offset="0.0918" style="stop-color:#5057A6"/>
				<stop  offset="0.3827" style="stop-color:#5057A6"/>
			</linearGradient>
			<polygon fill="url(#SVGID_13_)" points="434.773,473.187 429.555,499.731 461.912,480.313 			"/>
			<linearGradient id="SVGID_14_" gradientUnits="userSpaceOnUse" x1="470.3145" y1="488.4487" x2="507.209" y2="488.4487">
				<stop  offset="0.0918" style="stop-color:#5057A6"/>
				<stop  offset="0.3827" style="stop-color:#5057A6"/>
			</linearGradient>
			<polygon fill="url(#SVGID_14_)" points="489.094,503.593 489.127,503.561 507.209,473.305 470.314,480.857 			"/>
			<linearGradient id="SVGID_15_" gradientUnits="userSpaceOnUse" x1="443.4121" y1="505.8228" x2="464.7598" y2="505.8228">
				<stop  offset="0.0918" style="stop-color:#5057A6"/>
				<stop  offset="0.3827" style="stop-color:#5057A6"/>
			</linearGradient>
			<polygon fill="url(#SVGID_15_)" points="443.412,523.083 464.154,524.276 464.76,487.369 			"/>
			<linearGradient id="SVGID_16_" gradientUnits="userSpaceOnUse" x1="430.0332" y1="502.9746" x2="461.7773" y2="502.9746">
				<stop  offset="0.0918" style="stop-color:#5057A6"/>
				<stop  offset="0.3827" style="stop-color:#5057A6"/>
			</linearGradient>
			<polygon fill="url(#SVGID_16_)" points="430.033,503.919 440.143,521.077 461.777,484.872 			"/>
			<linearGradient id="SVGID_17_" gradientUnits="userSpaceOnUse" x1="508.7832" y1="511.6836" x2="540.2832" y2="511.6836">
				<stop  offset="0.0918" style="stop-color:#5057A6"/>
				<stop  offset="0.3827" style="stop-color:#5057A6"/>
			</linearGradient>
			<polygon fill="url(#SVGID_17_)" points="513.971,527.61 540.283,498.171 508.783,493.967 512.369,529.4 			"/>
			<linearGradient id="SVGID_18_" gradientUnits="userSpaceOnUse" x1="484.6895" y1="512.8906" x2="508.8613" y2="512.8906">
				<stop  offset="0.0918" style="stop-color:#5057A6"/>
				<stop  offset="0.3827" style="stop-color:#5057A6"/>
			</linearGradient>
			<polygon fill="url(#SVGID_18_)" points="505.35,495.529 484.689,518.648 508.861,530.252 			"/>
			<linearGradient id="SVGID_19_" gradientUnits="userSpaceOnUse" x1="515.377" y1="515.9888" x2="550.25" y2="515.9888">
				<stop  offset="0.0918" style="stop-color:#5057A6"/>
				<stop  offset="0.3827" style="stop-color:#5057A6"/>
			</linearGradient>
			<polygon fill="url(#SVGID_19_)" points="550.25,531.012 542.932,500.569 515.377,531.409 			"/>
			<linearGradient id="SVGID_20_" gradientUnits="userSpaceOnUse" x1="504.4707" y1="555.5977" x2="524.0684" y2="555.5977">
				<stop  offset="0.0918" style="stop-color:#5057A6"/>
				<stop  offset="0.3827" style="stop-color:#5057A6"/>
			</linearGradient>
			<polygon fill="url(#SVGID_20_)" points="504.471,572.84 524.068,560.982 511.717,538.356 			"/>
			<linearGradient id="SVGID_21_" gradientUnits="userSpaceOnUse" x1="473.3066" y1="533.3896" x2="506.3535" y2="533.3896">
				<stop  offset="0.0918" style="stop-color:#5057A6"/>
				<stop  offset="0.3827" style="stop-color:#5057A6"/>
			</linearGradient>
			<polygon fill="url(#SVGID_21_)" points="482.775,521.701 473.307,545.078 506.354,533.018 			"/>
			<linearGradient id="SVGID_22_" gradientUnits="userSpaceOnUse" x1="513.9531" y1="546.8633" x2="549.0625" y2="546.8633">
				<stop  offset="0.0918" style="stop-color:#5057A6"/>
				<stop  offset="0.3827" style="stop-color:#5057A6"/>
			</linearGradient>
			<polygon fill="url(#SVGID_22_)" points="527.131,559.125 527.16,559.11 549.063,534.601 513.953,535.002 			"/>
			<linearGradient id="SVGID_23_" gradientUnits="userSpaceOnUse" x1="481.8691" y1="556.8193" x2="507.7188" y2="556.8193">
				<stop  offset="0.0918" style="stop-color:#5057A6"/>
				<stop  offset="0.3827" style="stop-color:#5057A6"/>
			</linearGradient>
			<polygon fill="url(#SVGID_23_)" points="481.869,568.9 500.646,573.665 507.719,539.973 			"/>
			<linearGradient id="SVGID_24_" gradientUnits="userSpaceOnUse" x1="473.001" y1="551.8262" x2="505.4277" y2="551.8262">
				<stop  offset="0.0918" style="stop-color:#5057A6"/>
				<stop  offset="0.3827" style="stop-color:#5057A6"/>
			</linearGradient>
			<polygon fill="url(#SVGID_24_)" points="473.001,548.994 479.231,566.488 505.428,537.165 			"/>
			<linearGradient id="SVGID_25_" gradientUnits="userSpaceOnUse" x1="306.085" y1="454.7109" x2="340.1094" y2="454.7109">
				<stop  offset="0.0918" style="stop-color:#5057A6"/>
				<stop  offset="0.3827" style="stop-color:#5057A6"/>
			</linearGradient>
			<polygon fill="url(#SVGID_25_)" points="327.815,471.779 306.085,435.428 340.109,437.408 329.137,473.994 			"/>
			<linearGradient id="SVGID_26_" gradientUnits="userSpaceOnUse" x1="332.6606" y1="457.6748" x2="360.4731" y2="457.6748">
				<stop  offset="0.0918" style="stop-color:#5057A6"/>
				<stop  offset="0.3827" style="stop-color:#5057A6"/>
			</linearGradient>
			<polygon fill="url(#SVGID_26_)" points="343.411,439.752 360.473,468.295 332.661,475.598 			"/>
			<linearGradient id="SVGID_27_" gradientUnits="userSpaceOnUse" x1="288.9146" y1="456.4531" x2="325.562" y2="456.4531">
				<stop  offset="0.0918" style="stop-color:#5057A6"/>
				<stop  offset="0.3827" style="stop-color:#5057A6"/>
			</linearGradient>
			<polygon fill="url(#SVGID_27_)" points="288.915,467.988 302.81,437.417 325.562,475.489 			"/>
			<linearGradient id="SVGID_28_" gradientUnits="userSpaceOnUse" x1="310.3984" y1="502.4473" x2="328.6289" y2="502.4473">
				<stop  offset="0.0918" style="stop-color:#5057A6"/>
				<stop  offset="0.3827" style="stop-color:#5057A6"/>
			</linearGradient>
			<polygon fill="url(#SVGID_28_)" points="328.629,521.34 310.398,504.868 328.008,483.555 			"/>
			<linearGradient id="SVGID_29_" gradientUnits="userSpaceOnUse" x1="334.7349" y1="485.166" x2="367.0869" y2="485.166">
				<stop  offset="0.0918" style="stop-color:#5057A6"/>
				<stop  offset="0.3827" style="stop-color:#5057A6"/>
			</linearGradient>
			<polygon fill="url(#SVGID_29_)" points="361.866,471.894 367.087,498.438 334.735,479.022 			"/>
			<linearGradient id="SVGID_30_" gradientUnits="userSpaceOnUse" x1="289.4365" y1="487.1514" x2="326.333" y2="487.1514">
				<stop  offset="0.0918" style="stop-color:#5057A6"/>
				<stop  offset="0.3827" style="stop-color:#5057A6"/>
			</linearGradient>
			<polygon fill="url(#SVGID_30_)" points="307.548,502.291 307.52,502.272 289.437,472.012 326.333,479.561 			"/>
			<linearGradient id="SVGID_31_" gradientUnits="userSpaceOnUse" x1="331.8857" y1="504.5283" x2="353.2305" y2="504.5283">
				<stop  offset="0.0918" style="stop-color:#5057A6"/>
				<stop  offset="0.3827" style="stop-color:#5057A6"/>
			</linearGradient>
			<polygon fill="url(#SVGID_31_)" points="353.23,521.783 332.491,522.986 331.886,486.071 			"/>
			<linearGradient id="SVGID_32_" gradientUnits="userSpaceOnUse" x1="334.8647" y1="501.6777" x2="366.6128" y2="501.6777">
				<stop  offset="0.0918" style="stop-color:#5057A6"/>
				<stop  offset="0.3827" style="stop-color:#5057A6"/>
			</linearGradient>
			<polygon fill="url(#SVGID_32_)" points="366.613,502.627 356.5,519.778 334.865,483.578 			"/>
			<linearGradient id="SVGID_33_" gradientUnits="userSpaceOnUse" x1="256.3608" y1="510.3906" x2="287.8579" y2="510.3906">
				<stop  offset="0.0918" style="stop-color:#5057A6"/>
				<stop  offset="0.3827" style="stop-color:#5057A6"/>
			</linearGradient>
			<polygon fill="url(#SVGID_33_)" points="282.671,526.319 256.361,496.877 287.858,492.673 284.273,528.108 			"/>
			<linearGradient id="SVGID_34_" gradientUnits="userSpaceOnUse" x1="287.7832" y1="511.5967" x2="311.9565" y2="511.5967">
				<stop  offset="0.0918" style="stop-color:#5057A6"/>
				<stop  offset="0.3827" style="stop-color:#5057A6"/>
			</linearGradient>
			<polygon fill="url(#SVGID_34_)" points="291.292,494.234 311.957,517.36 287.783,528.959 			"/>
			<linearGradient id="SVGID_35_" gradientUnits="userSpaceOnUse" x1="246.3926" y1="514.6943" x2="281.2681" y2="514.6943">
				<stop  offset="0.0918" style="stop-color:#5057A6"/>
				<stop  offset="0.3827" style="stop-color:#5057A6"/>
			</linearGradient>
			<polygon fill="url(#SVGID_35_)" points="246.393,529.717 253.711,499.278 281.268,530.111 			"/>
			<linearGradient id="SVGID_36_" gradientUnits="userSpaceOnUse" x1="272.5732" y1="554.3047" x2="292.1733" y2="554.3047">
				<stop  offset="0.0918" style="stop-color:#5057A6"/>
				<stop  offset="0.3827" style="stop-color:#5057A6"/>
			</linearGradient>
			<polygon fill="url(#SVGID_36_)" points="292.173,571.543 272.573,559.687 284.926,537.065 			"/>
			<linearGradient id="SVGID_37_" gradientUnits="userSpaceOnUse" x1="290.2861" y1="532.0957" x2="323.3384" y2="532.0957">
				<stop  offset="0.0918" style="stop-color:#5057A6"/>
				<stop  offset="0.3827" style="stop-color:#5057A6"/>
			</linearGradient>
			<polygon fill="url(#SVGID_37_)" points="313.868,520.409 323.338,543.783 290.286,531.722 			"/>
			<linearGradient id="SVGID_38_" gradientUnits="userSpaceOnUse" x1="247.5791" y1="545.5664" x2="282.689" y2="545.5664">
				<stop  offset="0.0918" style="stop-color:#5057A6"/>
				<stop  offset="0.3827" style="stop-color:#5057A6"/>
			</linearGradient>
			<polygon fill="url(#SVGID_38_)" points="269.507,557.831 269.479,557.811 247.579,533.303 282.689,533.708 			"/>
			<linearGradient id="SVGID_39_" gradientUnits="userSpaceOnUse" x1="288.9258" y1="555.5234" x2="314.7725" y2="555.5234">
				<stop  offset="0.0918" style="stop-color:#5057A6"/>
				<stop  offset="0.3827" style="stop-color:#5057A6"/>
			</linearGradient>
			<polygon fill="url(#SVGID_39_)" points="314.772,567.607 295.999,572.365 288.926,538.681 			"/>
			<linearGradient id="SVGID_40_" gradientUnits="userSpaceOnUse" x1="291.2139" y1="550.5293" x2="323.6411" y2="550.5293">
				<stop  offset="0.0918" style="stop-color:#5057A6"/>
				<stop  offset="0.3827" style="stop-color:#5057A6"/>
			</linearGradient>
			<polygon fill="url(#SVGID_40_)" points="323.641,547.703 317.416,565.186 291.214,535.873 			"/>
		</g>
		<g>
			<path fill="#BFC1E1" d="M497.863,365.109l26.078,43.435l25.945,43.512l25.861,43.56l25.758,43.621l0.777,1.317l-0.777,1.376
				l-24.934,44.096l-25.025,44.042l-25.042,44.032l-25.145,43.974l-1.149,2.009l-2.348,0.01l-50.654,0.211l-50.655,0.108
				l-101.309,0.14l-2.599,0.004l-1.296-2.253L240.814,630.5l-25.239-43.918l-25.143-43.974l-1.169-2.044l1.169-2.005l25.511-43.763
				l25.608-43.706l25.631-43.693l25.721-43.641l0.806-1.368l1.537,0.015L345.9,362.9l50.654,0.621l50.655,0.717L497.863,365.109z
				 M497.863,365.109l-50.654,0.872l-50.655,0.717l-50.654,0.621l-50.655,0.496l2.343-1.353l-24.933,44.096l-25.022,44.044
				l-25.045,44.031l-25.143,43.975v-4.049l25.511,43.762l25.414,43.817l50.771,87.668l-3.895-2.249l101.309,0.14l50.655,0.108
				l50.654,0.211l-3.497,2.019l25.51-43.762l25.612-43.703l25.63-43.693l25.722-43.64v2.693l-24.897-44.117l-24.793-44.177
				l-24.71-44.226L497.863,365.109z"/>
		</g>
		<g>
			<path fill="#BFC1E1" d="M308.537,682.875c-7.522-12.597-15.108-25.156-22.578-37.783l-22.458-37.852l-22.457-37.852
				l-22.342-37.919l-0.605-1.027l0.605-1.068l21.698-38.291l21.77-38.249l21.783-38.241l21.863-38.195l0.895-1.563l1.825-0.007
				l44.01-0.164l44.01-0.084l88.02-0.109l2.021-0.002l1.008,1.751l43.918,76.279l21.937,38.152l21.862,38.195l0.908,1.588
				l-0.908,1.561l-22.148,38.031l-22.223,37.986L508.71,645.99l-22.311,37.937l-0.626,1.063l-1.197-0.011l-44.01-0.389l-44.01-0.525
				l-44.01-0.525C337.877,683.385,323.207,683.092,308.537,682.875z M308.537,682.875c14.67-0.218,29.34-0.511,44.01-0.665
				l44.01-0.526l44.01-0.525l44.01-0.389l-1.822,1.053l21.698-38.29l21.769-38.249l21.785-38.24l21.861-38.195v3.148l-22.146-38.03
				l-22.073-38.074l-44.101-76.173l3.029,1.749l-88.02-0.109l-44.01-0.084l-44.01-0.164l2.72-1.57l-22.147,38.031l-22.227,37.985
				l-22.24,37.977l-22.313,37.936v-2.095l21.668,38.307l21.553,38.375l21.553,38.374
				C294.306,657.213,301.389,670.063,308.537,682.875z"/>
		</g>
	</g>
	<g>
		<linearGradient id="SVGID_41_" gradientUnits="userSpaceOnUse" x1="314.8442" y1="623.2832" x2="392.7544" y2="623.2832">
			<stop  offset="0.0918" style="stop-color:#5057A6"/>
			<stop  offset="0.3827" style="stop-color:#5057A6"/>
		</linearGradient>
		<polygon fill="url(#SVGID_41_)" points="314.844,593.209 351.586,653.357 392.754,593.209 		"/>
		<linearGradient id="SVGID_42_" gradientUnits="userSpaceOnUse" x1="355.4556" y1="625.7227" x2="438.0703" y2="625.7227">
			<stop  offset="0.0918" style="stop-color:#5057A6"/>
			<stop  offset="0.3827" style="stop-color:#5057A6"/>
		</linearGradient>
		<polygon fill="url(#SVGID_42_)" points="355.456,655.9 438.07,655.9 396.764,595.545 		"/>
		<linearGradient id="SVGID_43_" gradientUnits="userSpaceOnUse" x1="400.0586" y1="558.9863" x2="477.9434" y2="558.9863">
			<stop  offset="0.0918" style="stop-color:#5057A6"/>
			<stop  offset="0.3827" style="stop-color:#5057A6"/>
		</linearGradient>
		<polygon fill="url(#SVGID_43_)" points="477.943,589.045 430.861,528.929 400.059,589.045 		"/>
		<linearGradient id="SVGID_44_" gradientUnits="userSpaceOnUse" x1="366.4922" y1="555.9082" x2="427.0381" y2="555.9082">
			<stop  offset="0.0918" style="stop-color:#5057A6"/>
			<stop  offset="0.3827" style="stop-color:#5057A6"/>
		</linearGradient>
		<polygon fill="url(#SVGID_44_)" points="427.038,526.361 366.492,526.361 396.764,585.456 		"/>
		<linearGradient id="SVGID_45_" gradientUnits="userSpaceOnUse" x1="315.5845" y1="558.9863" x2="393.4663" y2="558.9863">
			<stop  offset="0.0918" style="stop-color:#5057A6"/>
			<stop  offset="0.3827" style="stop-color:#5057A6"/>
		</linearGradient>
		<polygon fill="url(#SVGID_45_)" points="362.668,528.929 315.584,589.045 393.466,589.045 		"/>
		<linearGradient id="SVGID_46_" gradientUnits="userSpaceOnUse" x1="400.7754" y1="623.2832" x2="478.6865" y2="623.2832">
			<stop  offset="0.0918" style="stop-color:#5057A6"/>
			<stop  offset="0.3827" style="stop-color:#5057A6"/>
		</linearGradient>
		<polygon fill="url(#SVGID_46_)" points="441.939,653.357 478.687,593.209 400.775,593.209 		"/>
	</g>
</g>
</svg>
